# xmcd
#
# Track frame offsets:
# 150
# 12835
# 28827
# 43107
# 57742
# 72620
# 88362
# 104907
# 120072
# 136752
# 150110
# 166675
# 182120
# 197272
# 212565
# 227002
#
# Disc length: 3216 seconds
#
#
# Revision: 2
# Processed by: cddbd v1.5.2PL0 Copyright (c) Steve Scherf et al.
# Submitted via: FreeRIP 2.945 
#
DISCID=d40c8e10
DTITLE=Bellamy Brothers - Let Your Love Flow
DYEAR=2000
DGENRE=Country
TTITLE0=Let Your Love Flow
TTITLE1=Crazy From The Heart
TTITLE2=If I Said You Had A Beautiful Body
TTITLE3=Dancin' Cowboys
TTITLE4=Lovers Live Together
TTITLE5=Sugar Daddy
TTITLE6=Feelin' The Feelin'
TTITLE7=Redneck Girl
TTITLE8=For All The Wrong Seasons
TTITLE9=Do You Love As Good As You Look
TTITLE10=When I'm Away From You
TTITLE11=I'd Lie To You For Your Love
TTITLE12=You'll Never Be Sorry
TTITLE13=I Need More Of You
TTITLE14=Big Love
TTITLE15=Get Into Reggae Cowboy
EXTD=
EXTT0=
EXTT1=
EXTT2=
EXTT3=
EXTT4=
EXTT5=
EXTT6=
EXTT7=
EXTT8=
EXTT9=
EXTT10=
EXTT11=
EXTT12=
EXTT13=
EXTT14=
EXTT15=
PLAYORDER=
